<?xml version="1.0" encoding="UTF-8" standalone="no"?>
<!-- Created with Inkscape (http://www.inkscape.org/) -->

<svg
   version="1.1"
   id="svg1"
   width="2048"
   height="2048"
   viewBox="0 0 2048 2048"
   xmlns="http://www.w3.org/2000/svg"
   xmlns:svg="http://www.w3.org/2000/svg">
  <defs
     id="defs1" />
  <g
     id="g1">
    <path
       style="fill:#000000"
       d="m 1173,1941.4103 c -60.5728,15.2811 -146.3868,-36.4096 -118.5,-103.2584 2.9825,-38.0194 25.5548,-118.6965 -34.8782,-102.4671 -53.13198,17.419 -108.84039,4.8216 -150.5834,-10.9504 -22.49008,-32.6243 -91.42805,-38.2804 -87.08535,-2.426 -10.14915,54.3592 -69.8211,102.9708 -125.84789,90.5584 -55.11958,-7.0826 -121.43552,-30.3049 -161.67598,-51.6605 -55.80835,-28.4223 -73.19521,-105.2093 -14.96622,-139.033 57.42668,-39.3245 13.3486,-130.829 49.65459,-188.87 23.21716,-54.2917 43.36333,-98.9594 85.98573,-135.4242 42.03362,-29.996 62.27285,-96.7248 41.97495,-146.7799 6.19323,-38.5247 -36.06021,-64.0931 -67.38631,-81.4672 -38.32551,-32.7202 -64.25804,-55.4767 -105.19144,-83.64821 -37.94914,-24.97467 -67.01036,-74.17447 -81.0344,-114.82467 -27.78075,-34.8184 -40.1448,-96.32356 -78.68756,-134.37439 -35.07782,-55.60286 -45.90351,-140.43975 -19.24533,-188.80171 20.31822,-60.42805 116.6721,-60.92248 121.82281,-136.683 40.89726,-57.98662 22.50923,-181.02974 101.60764,-195.66025 20.26067,70.19142 -39.67495,171.98422 -66.05462,246.7135 31.17939,63.28597 38.65294,157.81628 115.25578,190.8572 23.84591,21.94163 75.78292,66.82338 108.97269,44.65373 42.78267,-23.39997 55.88038,-107.41458 87.13138,-154.55974 -58.98585,-36.25216 -58.40866,-119.40494 -5.05376,-163.92872 45.46221,-62.29599 157.35195,-55.92461 168.25711,30.88655 67.79728,3.29625 144.26848,-20.13732 212.49288,24.28001 49.4944,23.20796 83.0944,-85.16381 147.6866,-35.47057 45.18,22.96095 71.6513,78.28015 69.7506,134.00467 5.8106,57.1102 -89.482,55.73136 -55.8635,114.69801 5.4524,54.99045 15.6308,161.15557 89.9342,105.77555 60.8105,-18.19711 125.3958,-62.75453 122.8308,-131.88774 78.8447,-63.9867 3.0859,-166.97584 5.3278,-255.03952 -34.8035,-61.94521 50.4009,-94.33864 52.1339,-19.35177 18.6024,69.62736 25.1949,140.59977 37.8573,210.61765 58.4541,35.00822 103.8671,91.70902 104.5696,165.91171 -1.4363,46.23521 -21.0756,97.52401 -61.0495,130.72011 -4.2962,32.8231 -38.5593,77.07008 -56.7229,106.84458 -17.1912,42.85552 -59.7772,80.25542 -86.6324,103.63372 -36.1793,33.4609 -75.2018,48.2168 -105.0226,64.249 -38.4621,24.496 -84.3884,28.2906 -94.518,86.4686 -11.4911,50.6123 -5.3898,121.1601 8.7861,170.3221 4.1049,56.7118 57.9084,97.6027 53.4985,177.5898 -7.231,50.1112 9.4366,84.1771 -9.2282,131.1687 -7.817,48.9057 -34.5882,96.8755 -34.5571,146.2052 6.1499,45.1676 -11.5681,112.6722 -85.3054,95.4332 -26.7814,2.4028 -53.3872,6.7211 -80.4409,4.975 z"
       id="path1" />
  </g>
</svg>
