<?xml version="1.0" encoding="UTF-8" standalone="no"?>
<svg
   width="2048"
   height="2048"
   version="1.1"
   id="svg1"
   xml:space="preserve"
   xmlns="http://www.w3.org/2000/svg"
   xmlns:svg="http://www.w3.org/2000/svg"><defs
     id="defs1" /><path
     d="m 1619.623,557.889 c -12.663,-70.018 -38.5785,-180.52651 -52.7383,-254.81781 -17.948,-12.5742 -32.077,-8.61123 -44.1381,10.02239 12.5058,70.85088 33.3402,180.43632 41.7634,261.9422"
     style="display:inline;fill:#000000"
     id="RGlow" /><path
     d="m 1619.623,557.889 c 58.454,35.008 103.867,91.709 104.57,165.911 -1.437,46.236 -21.076,97.524 -61.05,130.72 -4.296,32.824 -38.56,77.07 -56.723,106.845 -17.191,42.856 -59.777,80.255 -86.632,103.634 -36.18,33.46 -75.202,48.217 -105.023,64.249 -32.9277,20.9713 -94.518,86.468 -120.7435,25.2619 -42.5384,-99.2781 -93.3022,-135.5745 -91.9412,-192.39485 1.2627,-52.71287 12.0688,-76.51049 46.3705,-114.96252 44.4789,-49.86076 124.9042,-72.64569 153.0222,-93.60253 60.81,-18.197 125.396,-62.755 122.83,-131.888 17.4679,-14.17572 41.3715,-35.35756 40.207,-46.62622"
     style="display:inline;fill:#000000"
     id="RArm" /><path
     d="m 1173,1941.41 c -60.573,15.281 -146.387,-36.41 -118.5,-103.258 2.982,-38.02 25.555,-118.697 -34.878,-102.467 -215.1704,-242.0531 231.5502,-667.0843 395.143,-606.437 -38.462,24.496 -84.388,28.29 -94.518,86.468 -11.491,50.613 -5.39,121.16 8.786,170.322 4.105,56.712 57.909,97.603 53.499,177.59 -7.231,50.111 9.436,84.177 -9.229,131.169 -7.817,48.906 -34.588,96.875 -34.557,146.205 6.15,45.168 -11.568,112.672 -85.305,95.433 -26.781,2.403 -53.387,6.721 -80.441,4.975 z"
     style="display:inline;fill:#000000"
     id="RLeg" /><path
     d="m 869.038,1724.735 c -22.49,-32.625 -91.428,-38.281 -87.085,-2.427 -10.15,54.36 -69.821,102.971 -125.848,90.559 -55.12,-7.083 -121.435,-30.305 -161.676,-51.66 -55.808,-28.423 -73.195,-105.21 -14.966,-139.034 57.427,-39.324 13.349,-130.829 49.655,-188.87 23.217,-54.291 43.363,-98.96 85.985,-135.424 371.5587,-55.0406 247.43999,59.8125 253.935,426.856 z"
     style="display:inline;fill:#000000"
     id="LLeg" /><path
     d="m 1019.622,1735.685 c -53.132,17.419 -108.84,4.821 -150.584,-10.95 -203.19315,-111.1266 -256.66618,-298.1393 -253.935,-426.856 0.46384,-21.8603 50.25514,-54.8244 48.99304,-88.5813 -11.88651,-317.92417 601.06956,-126.92 750.66896,-80.0497 -38.462,24.496 -84.388,28.29 -94.518,86.468 -11.491,50.613 -5.39,121.16 8.786,170.322 -40.6924,109.3311 -55.826,164.8048 -309.411,349.647 z"
     style="display:inline;fill:#000000"
     id="Crotch" /><path
     d="m 462.909,462.353 c 31.18,63.286 38.653,157.817 115.256,190.857 23.846,21.942 75.783,66.824 108.972,44.654 262.6603,-352.58773 124.66447,942.3032 -30.059,453.235 6.193,-38.524 -36.06,-64.093 -67.386,-81.467 C 551.366,1036.912 525.434,1014.155 484.5,985.984 446.551,961.009 417.49,911.809 403.466,871.159 375.686,836.341 363.321,774.836 324.779,736.785 289.701,681.182 278.875,596.345 305.533,547.983 325.851,487.555 422.205,487.061 427.356,411.3"
     style="display:inline;fill:#000000"
     id="LArm" /><path
     d="M 411.23341,477.68218 C 415.99749,456.01411 421.36547,433.8891 427.356,411.3 c 36.06757,-51.13945 41.12924,-154.35828 80.27044,-201.44034 5.56294,-6.69153 24.95977,12.84525 33.7757,9.33409 C 530.56679,294.71538 493.73119,389.40088 462.909,462.353"
     style="display:inline;fill:#000000"
     id="LGlow" /><path
     d="M 641.97907,777.66654 C 684.76207,754.26654 743.017,590.45 774.269,543.304 715.283,507.052 715.86,423.9 769.215,379.376 c 45.462,-62.296 157.352,-55.925 168.257,30.886 67.798,3.297 144.269,-20.137 212.493,24.28 49.495,23.208 83.095,-85.164 147.687,-35.47 45.18,22.96 71.651,78.28 69.75,134.004 5.81,57.11 -89.482,55.732 -55.863,114.698 -12.33,36.45042 55.349,113.95875 39.0403,160.50381 -18.4257,52.5872 -108.6381,59.93132 -144.6967,91.89969"
     style="display:inline;fill:#000000"
     id="Head" /><path
     d="m 657.078,1151.099 c 6.193,-38.524 -5.64288,-340.6012 27.54612,-362.7712 42.783,-23.4 525.77458,-78.69217 559.39358,-19.72617 5.452,54.99 83.1513,40.32837 157.4553,-15.05163 60.81,-18.197 43.113,359.666 13.292,375.698 -38.462,24.496 -84.388,28.29 -94.518,86.468 -10.9364,105.2052 29.2758,230.748 -36.8038,272.7777 -277.3689,176.4194 -445.38834,81.7284 -626.3652,-337.3947 z"
     style="display:inline;fill:#000000"
     id="Chest" /></svg>
